<mxfile host="app.diagrams.net" modified="2023-07-17T02:08:34.413Z" agent="Mozilla/5.0 (Macintosh; Intel Mac OS X 10_15_7) AppleWebKit/537.36 (KHTML, like Gecko) Chrome/114.0.0.0 Safari/537.36" etag="NOd6D0jwG4bTUrVNYMF1" version="21.6.2" type="github">
  <diagram name="第 1 页" id="tdPe44gVwAZMvtP6AKuR">
    <mxGraphModel dx="4097" dy="3378" grid="1" gridSize="10" guides="1" tooltips="1" connect="1" arrows="1" fold="1" page="1" pageScale="1" pageWidth="827" pageHeight="1169" math="0" shadow="0">
      <root>
        <mxCell id="0" />
        <mxCell id="1" parent="0" />
        <mxCell id="pQJLFDcXlXU-Z6ACYwJS-82" value="" style="group;movable=0;resizable=0;rotatable=0;deletable=0;editable=0;locked=1;connectable=0;" vertex="1" connectable="0" parent="1">
          <mxGeometry x="170" y="-390" width="2795" height="1370" as="geometry" />
        </mxCell>
        <mxCell id="pQJLFDcXlXU-Z6ACYwJS-10" value="" style="group;fontSize=16;fontFamily=Times New Roman;" vertex="1" connectable="0" parent="pQJLFDcXlXU-Z6ACYwJS-82">
          <mxGeometry y="410" width="190" height="230" as="geometry" />
        </mxCell>
        <mxCell id="pQJLFDcXlXU-Z6ACYwJS-1" value="Dataset 2" style="rounded=1;whiteSpace=wrap;html=1;fontSize=16;fontFamily=Times New Roman;" vertex="1" parent="pQJLFDcXlXU-Z6ACYwJS-10">
          <mxGeometry y="80" width="120" height="60" as="geometry" />
        </mxCell>
        <mxCell id="pQJLFDcXlXU-Z6ACYwJS-5" value="Dataset 1" style="rounded=1;whiteSpace=wrap;html=1;fontSize=16;fontFamily=Times New Roman;" vertex="1" parent="pQJLFDcXlXU-Z6ACYwJS-10">
          <mxGeometry width="120" height="60" as="geometry" />
        </mxCell>
        <mxCell id="pQJLFDcXlXU-Z6ACYwJS-6" value="Dataset n" style="rounded=1;whiteSpace=wrap;html=1;fontSize=16;fontFamily=Times New Roman;" vertex="1" parent="pQJLFDcXlXU-Z6ACYwJS-10">
          <mxGeometry y="170" width="120" height="60" as="geometry" />
        </mxCell>
        <mxCell id="pQJLFDcXlXU-Z6ACYwJS-8" value="..." style="text;html=1;align=center;verticalAlign=middle;resizable=0;points=[];autosize=1;strokeColor=none;fillColor=none;fontSize=16;fontFamily=Times New Roman;" vertex="1" parent="pQJLFDcXlXU-Z6ACYwJS-10">
          <mxGeometry x="40" y="140" width="40" height="30" as="geometry" />
        </mxCell>
        <mxCell id="pQJLFDcXlXU-Z6ACYwJS-9" value="" style="shape=curlyBracket;whiteSpace=wrap;html=1;rounded=1;flipH=1;labelPosition=right;verticalLabelPosition=middle;align=left;verticalAlign=middle;fontSize=16;fontFamily=Times New Roman;" vertex="1" parent="pQJLFDcXlXU-Z6ACYwJS-10">
          <mxGeometry x="120" y="30" width="70" height="170" as="geometry" />
        </mxCell>
        <mxCell id="pQJLFDcXlXU-Z6ACYwJS-11" value="MultiDatasetRouterChain" style="whiteSpace=wrap;html=1;align=center;rounded=1;fontSize=16;fontFamily=Times New Roman;" vertex="1" parent="pQJLFDcXlXU-Z6ACYwJS-82">
          <mxGeometry x="1678" y="497.5" width="220" height="55" as="geometry" />
        </mxCell>
        <mxCell id="pQJLFDcXlXU-Z6ACYwJS-17" value="dataset_id_1: useful for when you want to answer queries about the dataset_name_1;&lt;br style=&quot;font-size: 16px;&quot;&gt;dataset_id_2: useful for when you want to answer queries about the dataset_name_2;&lt;br style=&quot;font-size: 16px;&quot;&gt;..." style="whiteSpace=wrap;html=1;align=left;rounded=1;fontSize=16;fontFamily=Times New Roman;" vertex="1" parent="pQJLFDcXlXU-Z6ACYwJS-82">
          <mxGeometry x="210" y="478.29" width="580" height="91.71" as="geometry" />
        </mxCell>
        <mxCell id="pQJLFDcXlXU-Z6ACYwJS-18" value="" style="edgeStyle=orthogonalEdgeStyle;rounded=0;orthogonalLoop=1;jettySize=auto;html=1;exitX=0.1;exitY=0.5;exitDx=0;exitDy=0;exitPerimeter=0;fontSize=16;fontFamily=Times New Roman;" edge="1" parent="pQJLFDcXlXU-Z6ACYwJS-82" source="pQJLFDcXlXU-Z6ACYwJS-9" target="pQJLFDcXlXU-Z6ACYwJS-17">
          <mxGeometry relative="1" as="geometry">
            <mxPoint x="190" y="525" as="sourcePoint" />
          </mxGeometry>
        </mxCell>
        <mxCell id="pQJLFDcXlXU-Z6ACYwJS-19" value="MULTI_PROMPT_ROUTER_TEMPLATE = &quot;&quot;&quot;&#xa;Given a raw text input to a language model select the model prompt best suited for \&#xa;the input. You will be given the names of the available prompts and a description of \&#xa;what the prompt is best suited for. You may also revise the original input if you \&#xa;think that revising it will ultimately lead to a better response from the language \&#xa;model.&#xa;&#xa;&lt;&lt; FORMATTING &gt;&gt;&#xa;Return a markdown code snippet with a JSON object formatted to look like, \&#xa;no any other string out of markdown code snippet:&#xa;```json&#xa;{{{{&#xa;    &quot;destination&quot;: string \\ name of the prompt to use or &quot;DEFAULT&quot;&#xa;    &quot;next_inputs&quot;: string \\ a potentially modified version of the original input&#xa;}}}}&#xa;```&#xa;&#xa;REMEMBER: &quot;destination&quot; MUST be one of the candidate prompt names specified below OR \&#xa;it can be &quot;DEFAULT&quot; if the input is not well suited for any of the candidate prompts.&#xa;REMEMBER: &quot;next_inputs&quot; can just be the original input if you don&#39;t think any \&#xa;modifications are needed.&#xa;&#xa;&lt;&lt; CANDIDATE PROMPTS &gt;&gt;&#xa;dataset_id_1: useful for when you want to answer queries about the dataset_name_1;&#xa;dataset_id_2: useful for when you want to answer queries about the dataset_name_2;&#xa;...&#xa;&#xa;&lt;&lt; INPUT &gt;&gt;&#xa;{{input}}&#xa;&#xa;&lt;&lt; OUTPUT &gt;&gt;&#xa;&quot;&quot;&quot;" style="whiteSpace=wrap;align=left;rounded=1;fontSize=14;fontFamily=Times New Roman;spacingLeft=31;" vertex="1" parent="pQJLFDcXlXU-Z6ACYwJS-82">
          <mxGeometry x="900" y="234.15" width="610" height="580" as="geometry" />
        </mxCell>
        <mxCell id="pQJLFDcXlXU-Z6ACYwJS-21" value="destination_str" style="text;html=1;strokeColor=none;fillColor=none;align=center;verticalAlign=middle;whiteSpace=wrap;rounded=0;fontSize=16;fontFamily=Times New Roman;" vertex="1" parent="pQJLFDcXlXU-Z6ACYwJS-82">
          <mxGeometry x="460" y="448.29" width="60" height="30" as="geometry" />
        </mxCell>
        <mxCell id="pQJLFDcXlXU-Z6ACYwJS-22" value="填充 prompt" style="text;html=1;align=center;verticalAlign=middle;resizable=0;points=[];autosize=1;strokeColor=none;fillColor=none;fontFamily=Times New Roman;fontSize=16;" vertex="1" parent="pQJLFDcXlXU-Z6ACYwJS-82">
          <mxGeometry x="780" y="495" width="110" height="30" as="geometry" />
        </mxCell>
        <mxCell id="pQJLFDcXlXU-Z6ACYwJS-23" value="router template" style="text;html=1;strokeColor=none;fillColor=none;align=center;verticalAlign=middle;whiteSpace=wrap;rounded=0;fontFamily=Times New Roman;fontSize=16;" vertex="1" parent="pQJLFDcXlXU-Z6ACYwJS-82">
          <mxGeometry x="1135" y="200" width="140" height="30" as="geometry" />
        </mxCell>
        <mxCell id="pQJLFDcXlXU-Z6ACYwJS-24" value="llm" style="ellipse;whiteSpace=wrap;html=1;aspect=fixed;fontFamily=Times New Roman;fontSize=16;" vertex="1" parent="pQJLFDcXlXU-Z6ACYwJS-82">
          <mxGeometry x="1588" y="230" width="80" height="80" as="geometry" />
        </mxCell>
        <mxCell id="pQJLFDcXlXU-Z6ACYwJS-20" value="" style="edgeStyle=orthogonalEdgeStyle;rounded=0;orthogonalLoop=1;jettySize=auto;html=1;fontSize=16;fontFamily=Times New Roman;" edge="1" parent="pQJLFDcXlXU-Z6ACYwJS-82" source="pQJLFDcXlXU-Z6ACYwJS-17" target="pQJLFDcXlXU-Z6ACYwJS-19">
          <mxGeometry relative="1" as="geometry" />
        </mxCell>
        <mxCell id="pQJLFDcXlXU-Z6ACYwJS-25" value="" style="endArrow=classic;html=1;rounded=0;exitX=1;exitY=0.5;exitDx=0;exitDy=0;entryX=0;entryY=0.5;entryDx=0;entryDy=0;" edge="1" parent="pQJLFDcXlXU-Z6ACYwJS-82" source="pQJLFDcXlXU-Z6ACYwJS-19" target="pQJLFDcXlXU-Z6ACYwJS-11">
          <mxGeometry width="50" height="50" relative="1" as="geometry">
            <mxPoint x="1820" y="360" as="sourcePoint" />
            <mxPoint x="1870" y="310" as="targetPoint" />
          </mxGeometry>
        </mxCell>
        <mxCell id="pQJLFDcXlXU-Z6ACYwJS-26" value="" style="endArrow=none;dashed=1;html=1;dashPattern=1 3;strokeWidth=2;rounded=0;exitX=1;exitY=1;exitDx=0;exitDy=0;entryX=0.5;entryY=0;entryDx=0;entryDy=0;" edge="1" parent="pQJLFDcXlXU-Z6ACYwJS-82" source="pQJLFDcXlXU-Z6ACYwJS-24" target="pQJLFDcXlXU-Z6ACYwJS-11">
          <mxGeometry width="50" height="50" relative="1" as="geometry">
            <mxPoint x="1658" y="380" as="sourcePoint" />
            <mxPoint x="1708" y="330" as="targetPoint" />
          </mxGeometry>
        </mxCell>
        <mxCell id="pQJLFDcXlXU-Z6ACYwJS-27" value="Sequential_Chain" style="whiteSpace=wrap;html=1;fontSize=16;fontFamily=Times New Roman;rounded=1;" vertex="1" parent="pQJLFDcXlXU-Z6ACYwJS-82">
          <mxGeometry x="2190" y="273.75" width="180" height="57.5" as="geometry" />
        </mxCell>
        <mxCell id="pQJLFDcXlXU-Z6ACYwJS-29" value="" style="shape=curlyBracket;whiteSpace=wrap;html=1;rounded=1;flipH=1;labelPosition=right;verticalLabelPosition=middle;align=left;verticalAlign=middle;" vertex="1" parent="pQJLFDcXlXU-Z6ACYwJS-82">
          <mxGeometry x="1897" y="80" width="58" height="445" as="geometry" />
        </mxCell>
        <mxCell id="pQJLFDcXlXU-Z6ACYwJS-32" value="Chains" style="rounded=1;whiteSpace=wrap;html=1;fontFamily=Times New Roman;fontSize=16;" vertex="1" parent="pQJLFDcXlXU-Z6ACYwJS-82">
          <mxGeometry x="1980" y="272.5" width="120" height="60" as="geometry" />
        </mxCell>
        <mxCell id="pQJLFDcXlXU-Z6ACYwJS-58" style="edgeStyle=orthogonalEdgeStyle;rounded=0;orthogonalLoop=1;jettySize=auto;html=1;exitX=0.1;exitY=0.5;exitDx=0;exitDy=0;exitPerimeter=0;" edge="1" parent="pQJLFDcXlXU-Z6ACYwJS-82" source="pQJLFDcXlXU-Z6ACYwJS-29" target="pQJLFDcXlXU-Z6ACYwJS-32">
          <mxGeometry relative="1" as="geometry" />
        </mxCell>
        <mxCell id="pQJLFDcXlXU-Z6ACYwJS-33" value="" style="endArrow=classic;html=1;rounded=0;exitX=1;exitY=0.5;exitDx=0;exitDy=0;entryX=0;entryY=0.5;entryDx=0;entryDy=0;" edge="1" parent="pQJLFDcXlXU-Z6ACYwJS-82" source="pQJLFDcXlXU-Z6ACYwJS-32" target="pQJLFDcXlXU-Z6ACYwJS-27">
          <mxGeometry width="50" height="50" relative="1" as="geometry">
            <mxPoint x="2090" y="320" as="sourcePoint" />
            <mxPoint x="2140" y="270" as="targetPoint" />
          </mxGeometry>
        </mxCell>
        <mxCell id="pQJLFDcXlXU-Z6ACYwJS-34" value="" style="endArrow=classic;html=1;rounded=0;" edge="1" parent="pQJLFDcXlXU-Z6ACYwJS-82">
          <mxGeometry width="50" height="50" relative="1" as="geometry">
            <mxPoint x="1820" y="162.5" as="sourcePoint" />
            <mxPoint x="1820" y="442.5" as="targetPoint" />
          </mxGeometry>
        </mxCell>
        <mxCell id="pQJLFDcXlXU-Z6ACYwJS-35" value="先后次序" style="text;html=1;align=center;verticalAlign=middle;resizable=0;points=[];autosize=1;strokeColor=none;fillColor=none;horizontal=1;fontFamily=Times New Roman;fontSize=16;" vertex="1" parent="pQJLFDcXlXU-Z6ACYwJS-82">
          <mxGeometry x="1830" y="287.5" width="90" height="30" as="geometry" />
        </mxCell>
        <mxCell id="pQJLFDcXlXU-Z6ACYwJS-44" value="" style="group" vertex="1" connectable="0" parent="pQJLFDcXlXU-Z6ACYwJS-82">
          <mxGeometry x="1257" width="640" height="150" as="geometry" />
        </mxCell>
        <mxCell id="pQJLFDcXlXU-Z6ACYwJS-2" value="sensitive-word-avoidance&#xa;敏感词过滤" style="rounded=1;whiteSpace=wrap;imageAspect=1;fontSize=16;fontFamily=Times New Roman;" vertex="1" parent="pQJLFDcXlXU-Z6ACYwJS-44">
          <mxGeometry y="90" width="180" height="60" as="geometry" />
        </mxCell>
        <mxCell id="pQJLFDcXlXU-Z6ACYwJS-3" value="SensitiveWordAvoidanceChain" style="whiteSpace=wrap;rounded=1;fontSize=16;fontFamily=Times New Roman;" vertex="1" parent="pQJLFDcXlXU-Z6ACYwJS-44">
          <mxGeometry x="230" y="90" width="230" height="60" as="geometry" />
        </mxCell>
        <mxCell id="pQJLFDcXlXU-Z6ACYwJS-36" value="sensitive-word-avoidance&#xa;敏感词过滤" style="rounded=1;whiteSpace=wrap;imageAspect=1;fontSize=16;fontFamily=Times New Roman;" vertex="1" parent="pQJLFDcXlXU-Z6ACYwJS-44">
          <mxGeometry width="180" height="60" as="geometry" />
        </mxCell>
        <mxCell id="pQJLFDcXlXU-Z6ACYwJS-37" value="" style="endArrow=classic;html=1;rounded=0;entryX=0;entryY=0.5;entryDx=0;entryDy=0;exitX=1;exitY=0.5;exitDx=0;exitDy=0;" edge="1" parent="pQJLFDcXlXU-Z6ACYwJS-44" source="pQJLFDcXlXU-Z6ACYwJS-36" target="pQJLFDcXlXU-Z6ACYwJS-39">
          <mxGeometry width="50" height="50" relative="1" as="geometry">
            <mxPoint x="192" y="40" as="sourcePoint" />
            <mxPoint x="252" y="-10" as="targetPoint" />
          </mxGeometry>
        </mxCell>
        <mxCell id="pQJLFDcXlXU-Z6ACYwJS-38" value="" style="endArrow=classic;html=1;rounded=0;exitX=1;exitY=0.5;exitDx=0;exitDy=0;entryX=0;entryY=0.5;entryDx=0;entryDy=0;" edge="1" parent="pQJLFDcXlXU-Z6ACYwJS-44" source="pQJLFDcXlXU-Z6ACYwJS-2" target="pQJLFDcXlXU-Z6ACYwJS-3">
          <mxGeometry width="50" height="50" relative="1" as="geometry">
            <mxPoint x="202" y="190" as="sourcePoint" />
            <mxPoint x="252" y="140" as="targetPoint" />
          </mxGeometry>
        </mxCell>
        <mxCell id="pQJLFDcXlXU-Z6ACYwJS-39" value="SensitiveWordAvoidanceChain" style="whiteSpace=wrap;rounded=1;fontSize=16;fontFamily=Times New Roman;" vertex="1" parent="pQJLFDcXlXU-Z6ACYwJS-44">
          <mxGeometry x="230" width="230" height="60" as="geometry" />
        </mxCell>
        <mxCell id="pQJLFDcXlXU-Z6ACYwJS-41" value="" style="shape=curlyBracket;whiteSpace=wrap;html=1;rounded=1;flipH=1;labelPosition=right;verticalLabelPosition=middle;align=left;verticalAlign=middle;" vertex="1" parent="pQJLFDcXlXU-Z6ACYwJS-44">
          <mxGeometry x="460" y="30" width="20" height="90" as="geometry" />
        </mxCell>
        <mxCell id="pQJLFDcXlXU-Z6ACYwJS-42" value="pre_fixed_chains" style="rounded=1;whiteSpace=wrap;html=1;fontFamily=Times New Roman;fontSize=16;" vertex="1" parent="pQJLFDcXlXU-Z6ACYwJS-44">
          <mxGeometry x="520" y="45" width="120" height="60" as="geometry" />
        </mxCell>
        <mxCell id="pQJLFDcXlXU-Z6ACYwJS-43" value="" style="endArrow=classic;html=1;rounded=0;exitX=0.1;exitY=0.5;exitDx=0;exitDy=0;exitPerimeter=0;" edge="1" parent="pQJLFDcXlXU-Z6ACYwJS-44" source="pQJLFDcXlXU-Z6ACYwJS-41" target="pQJLFDcXlXU-Z6ACYwJS-42">
          <mxGeometry width="50" height="50" relative="1" as="geometry">
            <mxPoint x="500" y="90" as="sourcePoint" />
            <mxPoint x="540" y="75" as="targetPoint" />
          </mxGeometry>
        </mxCell>
        <mxCell id="pQJLFDcXlXU-Z6ACYwJS-45" value="human_message_prompt += &quot;&quot;&quot;Use the following CONTEXT as your learned knowledge.&#xa;[CONTEXT]&#xa;{{context}}&#xa;[END CONTEXT]&#xa;&#xa;When answer to user:&#xa;- If you don&#39;t know, just say that you don&#39;t know.&#xa;- If you don&#39;t know when you are not sure, ask for clarification. &#xa;Avoid mentioning that you obtained the information from the context.&#xa;And answer according to the language of the user&#39;s question.&#xa;&quot;&quot;&quot;" style="rounded=1;whiteSpace=wrap;align=left;fontFamily=Times New Roman;fontSize=14;spacingLeft=10;" vertex="1" parent="pQJLFDcXlXU-Z6ACYwJS-82">
          <mxGeometry x="1700" y="845" width="560" height="240" as="geometry" />
        </mxCell>
        <mxCell id="pQJLFDcXlXU-Z6ACYwJS-46" value="Actor" style="shape=umlActor;verticalLabelPosition=bottom;verticalAlign=top;html=1;outlineConnect=0;" vertex="1" parent="pQJLFDcXlXU-Z6ACYwJS-82">
          <mxGeometry x="2720" y="260" width="30" height="60" as="geometry" />
        </mxCell>
        <mxCell id="pQJLFDcXlXU-Z6ACYwJS-47" value="query: 如何优雅使用并发" style="ellipse;whiteSpace=wrap;html=1;fontFamily=Times New Roman;fontSize=16;" vertex="1" parent="pQJLFDcXlXU-Z6ACYwJS-82">
          <mxGeometry x="2580" y="80" width="190" height="80" as="geometry" />
        </mxCell>
        <mxCell id="pQJLFDcXlXU-Z6ACYwJS-48" value="" style="endArrow=none;dashed=1;html=1;dashPattern=1 3;strokeWidth=2;rounded=0;entryX=0.5;entryY=0;entryDx=0;entryDy=0;entryPerimeter=0;exitX=0.5;exitY=1;exitDx=0;exitDy=0;" edge="1" parent="pQJLFDcXlXU-Z6ACYwJS-82" source="pQJLFDcXlXU-Z6ACYwJS-47" target="pQJLFDcXlXU-Z6ACYwJS-46">
          <mxGeometry width="50" height="50" relative="1" as="geometry">
            <mxPoint x="2660" y="280" as="sourcePoint" />
            <mxPoint x="2710" y="230" as="targetPoint" />
          </mxGeometry>
        </mxCell>
        <mxCell id="pQJLFDcXlXU-Z6ACYwJS-50" value="final_template" style="text;html=1;align=center;verticalAlign=middle;resizable=0;points=[];autosize=1;strokeColor=none;fillColor=none;fontFamily=Times New Roman;fontSize=16;" vertex="1" parent="pQJLFDcXlXU-Z6ACYwJS-82">
          <mxGeometry x="1910" y="815" width="120" height="30" as="geometry" />
        </mxCell>
        <mxCell id="pQJLFDcXlXU-Z6ACYwJS-51" value="" style="endArrow=classic;html=1;rounded=0;exitX=0;exitY=0.5;exitDx=0;exitDy=0;entryX=1;entryY=0.5;entryDx=0;entryDy=0;" edge="1" parent="pQJLFDcXlXU-Z6ACYwJS-82" source="pQJLFDcXlXU-Z6ACYwJS-47" target="pQJLFDcXlXU-Z6ACYwJS-27">
          <mxGeometry width="50" height="50" relative="1" as="geometry">
            <mxPoint x="2340" y="310" as="sourcePoint" />
            <mxPoint x="2390" y="260" as="targetPoint" />
          </mxGeometry>
        </mxCell>
        <mxCell id="pQJLFDcXlXU-Z6ACYwJS-52" value="" style="endArrow=classic;html=1;rounded=0;exitX=0.5;exitY=0;exitDx=0;exitDy=0;" edge="1" parent="pQJLFDcXlXU-Z6ACYwJS-82" source="pQJLFDcXlXU-Z6ACYwJS-27">
          <mxGeometry width="50" height="50" relative="1" as="geometry">
            <mxPoint x="2196" y="270" as="sourcePoint" />
            <mxPoint x="1970" y="100" as="targetPoint" />
          </mxGeometry>
        </mxCell>
        <mxCell id="pQJLFDcXlXU-Z6ACYwJS-53" value="1" style="text;html=1;align=center;verticalAlign=middle;resizable=0;points=[];autosize=1;strokeColor=none;fillColor=none;fontSize=16;fontFamily=Times New Roman;" vertex="1" parent="pQJLFDcXlXU-Z6ACYwJS-82">
          <mxGeometry x="2440" y="180" width="30" height="30" as="geometry" />
        </mxCell>
        <mxCell id="pQJLFDcXlXU-Z6ACYwJS-54" value="2" style="text;html=1;align=center;verticalAlign=middle;resizable=0;points=[];autosize=1;strokeColor=none;fillColor=none;fontSize=16;fontFamily=Times New Roman;" vertex="1" parent="pQJLFDcXlXU-Z6ACYwJS-82">
          <mxGeometry x="2075" y="118" width="30" height="30" as="geometry" />
        </mxCell>
        <mxCell id="pQJLFDcXlXU-Z6ACYwJS-55" value="" style="endArrow=classic;html=1;rounded=0;" edge="1" parent="pQJLFDcXlXU-Z6ACYwJS-82">
          <mxGeometry width="50" height="50" relative="1" as="geometry">
            <mxPoint x="1960" y="102.5" as="sourcePoint" />
            <mxPoint x="1960" y="502.5" as="targetPoint" />
          </mxGeometry>
        </mxCell>
        <mxCell id="pQJLFDcXlXU-Z6ACYwJS-59" value="3" style="text;html=1;align=center;verticalAlign=middle;resizable=0;points=[];autosize=1;strokeColor=none;fillColor=none;fontSize=16;fontFamily=Times New Roman;" vertex="1" parent="pQJLFDcXlXU-Z6ACYwJS-82">
          <mxGeometry x="1955" y="200" width="30" height="30" as="geometry" />
        </mxCell>
        <mxCell id="pQJLFDcXlXU-Z6ACYwJS-60" value="" style="endArrow=classic;html=1;rounded=0;entryX=0.5;entryY=0;entryDx=0;entryDy=0;" edge="1" parent="pQJLFDcXlXU-Z6ACYwJS-82" target="pQJLFDcXlXU-Z6ACYwJS-61">
          <mxGeometry width="50" height="50" relative="1" as="geometry">
            <mxPoint x="1970" y="500" as="sourcePoint" />
            <mxPoint x="2040" y="694" as="targetPoint" />
          </mxGeometry>
        </mxCell>
        <mxCell id="pQJLFDcXlXU-Z6ACYwJS-61" value="Context: 根据query进行相似性搜索之后的文档" style="rounded=1;whiteSpace=wrap;html=1;fontSize=16;fontFamily=Times New Roman;" vertex="1" parent="pQJLFDcXlXU-Z6ACYwJS-82">
          <mxGeometry x="2060" y="660" width="200" height="65" as="geometry" />
        </mxCell>
        <mxCell id="pQJLFDcXlXU-Z6ACYwJS-62" value="memory : 历史聊天记录 conversation" style="rounded=1;whiteSpace=wrap;html=1;fontFamily=Times New Roman;fontSize=16;" vertex="1" parent="pQJLFDcXlXU-Z6ACYwJS-82">
          <mxGeometry x="2171" y="1110" width="260" height="60" as="geometry" />
        </mxCell>
        <mxCell id="pQJLFDcXlXU-Z6ACYwJS-63" value="" style="shape=curlyBracket;whiteSpace=wrap;html=1;rounded=1;flipH=1;labelPosition=right;verticalLabelPosition=middle;align=left;verticalAlign=middle;" vertex="1" parent="pQJLFDcXlXU-Z6ACYwJS-82">
          <mxGeometry x="2260" y="690" width="20" height="275" as="geometry" />
        </mxCell>
        <mxCell id="pQJLFDcXlXU-Z6ACYwJS-64" value="final_prompt" style="whiteSpace=wrap;html=1;align=center;rounded=1;fontFamily=Times New Roman;fontSize=16;" vertex="1" parent="pQJLFDcXlXU-Z6ACYwJS-82">
          <mxGeometry x="2310" y="797.5" width="120" height="60" as="geometry" />
        </mxCell>
        <mxCell id="pQJLFDcXlXU-Z6ACYwJS-65" value="" style="edgeStyle=orthogonalEdgeStyle;rounded=0;orthogonalLoop=1;jettySize=auto;html=1;exitX=0.1;exitY=0.5;exitDx=0;exitDy=0;exitPerimeter=0;" edge="1" parent="pQJLFDcXlXU-Z6ACYwJS-82" source="pQJLFDcXlXU-Z6ACYwJS-63" target="pQJLFDcXlXU-Z6ACYwJS-64">
          <mxGeometry relative="1" as="geometry" />
        </mxCell>
        <mxCell id="pQJLFDcXlXU-Z6ACYwJS-66" value="4" style="text;html=1;align=center;verticalAlign=middle;resizable=0;points=[];autosize=1;strokeColor=none;fillColor=none;fontFamily=Times New Roman;fontSize=16;" vertex="1" parent="pQJLFDcXlXU-Z6ACYwJS-82">
          <mxGeometry x="2060" y="540" width="30" height="30" as="geometry" />
        </mxCell>
        <mxCell id="pQJLFDcXlXU-Z6ACYwJS-67" value="" style="shape=curlyBracket;whiteSpace=wrap;html=1;rounded=1;flipH=1;labelPosition=right;verticalLabelPosition=middle;align=left;verticalAlign=middle;" vertex="1" parent="pQJLFDcXlXU-Z6ACYwJS-82">
          <mxGeometry x="2430" y="830" width="60" height="500" as="geometry" />
        </mxCell>
        <mxCell id="pQJLFDcXlXU-Z6ACYwJS-69" value="query" style="ellipse;whiteSpace=wrap;html=1;fontFamily=Times New Roman;fontSize=16;" vertex="1" parent="pQJLFDcXlXU-Z6ACYwJS-82">
          <mxGeometry x="2311" y="1290" width="120" height="80" as="geometry" />
        </mxCell>
        <mxCell id="pQJLFDcXlXU-Z6ACYwJS-70" value="prompt&lt;br&gt;最终的问题 input" style="rounded=1;whiteSpace=wrap;html=1;fontSize=16;fontFamily=Times New Roman;" vertex="1" parent="pQJLFDcXlXU-Z6ACYwJS-82">
          <mxGeometry x="2500" y="1050" width="120" height="60" as="geometry" />
        </mxCell>
        <mxCell id="pQJLFDcXlXU-Z6ACYwJS-71" value="" style="edgeStyle=orthogonalEdgeStyle;rounded=0;orthogonalLoop=1;jettySize=auto;html=1;exitX=0.1;exitY=0.5;exitDx=0;exitDy=0;exitPerimeter=0;" edge="1" parent="pQJLFDcXlXU-Z6ACYwJS-82" source="pQJLFDcXlXU-Z6ACYwJS-67" target="pQJLFDcXlXU-Z6ACYwJS-70">
          <mxGeometry relative="1" as="geometry" />
        </mxCell>
        <mxCell id="pQJLFDcXlXU-Z6ACYwJS-73" value="final_llm" style="ellipse;whiteSpace=wrap;html=1;aspect=fixed;fontFamily=Times New Roman;fontSize=16;" vertex="1" parent="pQJLFDcXlXU-Z6ACYwJS-82">
          <mxGeometry x="2520" y="570" width="80" height="80" as="geometry" />
        </mxCell>
        <mxCell id="pQJLFDcXlXU-Z6ACYwJS-74" value="" style="endArrow=classic;html=1;rounded=0;exitX=0.5;exitY=0;exitDx=0;exitDy=0;entryX=0.5;entryY=1;entryDx=0;entryDy=0;" edge="1" parent="pQJLFDcXlXU-Z6ACYwJS-82" source="pQJLFDcXlXU-Z6ACYwJS-70" target="pQJLFDcXlXU-Z6ACYwJS-73">
          <mxGeometry width="50" height="50" relative="1" as="geometry">
            <mxPoint x="2570" y="1010" as="sourcePoint" />
            <mxPoint x="2620" y="960" as="targetPoint" />
          </mxGeometry>
        </mxCell>
        <mxCell id="pQJLFDcXlXU-Z6ACYwJS-75" value="输入" style="text;html=1;align=center;verticalAlign=middle;resizable=0;points=[];autosize=1;strokeColor=none;fillColor=none;fontSize=16;fontFamily=Times New Roman;" vertex="1" parent="pQJLFDcXlXU-Z6ACYwJS-82">
          <mxGeometry x="2560" y="845" width="60" height="30" as="geometry" />
        </mxCell>
        <mxCell id="pQJLFDcXlXU-Z6ACYwJS-76" value="&lt;h1 style=&quot;font-size: 16px;&quot;&gt;answer:&lt;/h1&gt;&lt;div style=&quot;font-size: 16px;&quot;&gt;.........&lt;/div&gt;" style="text;html=1;strokeColor=none;fillColor=none;spacing=5;spacingTop=-20;whiteSpace=wrap;overflow=hidden;rounded=0;fontSize=16;fontFamily=Times New Roman;" vertex="1" parent="pQJLFDcXlXU-Z6ACYwJS-82">
          <mxGeometry x="2655" y="390" width="140" height="80" as="geometry" />
        </mxCell>
        <mxCell id="pQJLFDcXlXU-Z6ACYwJS-77" value="" style="endArrow=classic;html=1;rounded=0;exitX=0.5;exitY=0;exitDx=0;exitDy=0;entryX=0;entryY=1;entryDx=0;entryDy=0;" edge="1" parent="pQJLFDcXlXU-Z6ACYwJS-82" source="pQJLFDcXlXU-Z6ACYwJS-73" target="pQJLFDcXlXU-Z6ACYwJS-76">
          <mxGeometry width="50" height="50" relative="1" as="geometry">
            <mxPoint x="2640" y="650" as="sourcePoint" />
            <mxPoint x="2690" y="600" as="targetPoint" />
          </mxGeometry>
        </mxCell>
        <mxCell id="pQJLFDcXlXU-Z6ACYwJS-78" value="输出" style="text;html=1;align=center;verticalAlign=middle;resizable=0;points=[];autosize=1;strokeColor=none;fillColor=none;fontFamily=Times New Roman;fontSize=16;" vertex="1" parent="pQJLFDcXlXU-Z6ACYwJS-82">
          <mxGeometry x="2620" y="588" width="60" height="30" as="geometry" />
        </mxCell>
        <mxCell id="pQJLFDcXlXU-Z6ACYwJS-79" value="5" style="text;html=1;align=center;verticalAlign=middle;resizable=0;points=[];autosize=1;strokeColor=none;fillColor=none;fontFamily=Times New Roman;fontSize=16;" vertex="1" parent="pQJLFDcXlXU-Z6ACYwJS-82">
          <mxGeometry x="2410" y="760" width="30" height="30" as="geometry" />
        </mxCell>
        <mxCell id="pQJLFDcXlXU-Z6ACYwJS-80" value="6" style="text;html=1;align=center;verticalAlign=middle;resizable=0;points=[];autosize=1;strokeColor=none;fillColor=none;fontSize=16;" vertex="1" parent="pQJLFDcXlXU-Z6ACYwJS-82">
          <mxGeometry x="2570" y="815" width="30" height="30" as="geometry" />
        </mxCell>
        <mxCell id="pQJLFDcXlXU-Z6ACYwJS-81" value="&lt;font style=&quot;font-size: 16px;&quot; face=&quot;Times New Roman&quot;&gt;7&lt;/font&gt;" style="text;html=1;align=center;verticalAlign=middle;resizable=0;points=[];autosize=1;strokeColor=none;fillColor=none;" vertex="1" parent="pQJLFDcXlXU-Z6ACYwJS-82">
          <mxGeometry x="2615" y="508" width="30" height="30" as="geometry" />
        </mxCell>
      </root>
    </mxGraphModel>
  </diagram>
</mxfile>
